# Blender v2.78 (sub 0) OBJ File: 'tree.blend'
# www.blender.org
v 0.003279 0.000193 0.016227
v -0.005037 0.000192 0.014879
v 0.013897 0.000193 0.010539
v -0.010841 0.000192 0.009061
v 0.016082 0.000192 0.000053
v -0.012517 0.000192 -0.002996
v 0.010892 0.000193 -0.010216
v -0.005587 0.000192 -0.010971
v 0.002937 0.000193 -0.012971
v 0.016546 0.203925 0.006453
v 0.008490 0.249187 0.014473
v -0.014708 0.232896 -0.003978
v -0.009350 0.262468 -0.010162
v -0.001041 0.339159 -0.012320
v -0.007135 0.395804 0.011393
v -0.009785 0.483794 0.003422
v -0.001946 0.514219 0.011322
v 0.009269 0.493567 -0.004023
v 0.008852 0.519020 0.007862
v -0.007015 0.507552 -0.005776
v 0.003774 0.528289 -0.007783
v -0.011318 0.657039 -0.005688
v -0.008286 0.670623 0.002567
v 0.002875 0.672189 -0.000434
v -0.001096 0.782504 -0.003170
v -0.003403 0.777195 -0.011486
v -0.008759 0.795221 -0.009426
v -0.008389 0.897756 -0.013916
v -0.004987 0.897732 -0.016370
v -0.009538 0.897684 -0.017268
vt 0.5053 0.8662
vt 0.5135 0.9908
vt 0.5060 0.9914
vt 0.4908 0.8448
vt 0.4958 0.9915
vt 0.5233 0.8480
vt 0.5245 0.9912
vt 0.5097 0.7278
vt 0.5370 0.7328
vt 0.4935 0.7155
vt 0.5822 0.5629
vt 0.5521 0.8304
vt 0.4565 0.5749
vt 0.5272 0.5445
vt 0.5019 0.5177
vt 0.4817 0.5473
vt 0.5740 0.5243
vt 0.5488 0.5498
vt 0.5165 0.4152
vt 0.4589 0.3571
vt 0.4845 0.2519
vt 0.5463 0.2734
vt 0.5674 0.2291
vt 0.4711 0.2810
vt 0.6128 0.0019
vt 0.4369 0.0013
vt 0.5208 0.0000
vt 0.5049 0.0001
vt 0.5375 0.0000
vt 0.5898 0.0010
vt 0.4545 0.0009
vt 0.4204 0.0018
vt 0.4777 0.0005
vt 0.5648 0.0003
vn -0.9114 -0.0309 -0.4103
vn -0.3264 0.1061 0.9393
vn -0.7454 -0.0213 -0.6662
vn -0.6599 -0.0285 -0.7508
vn 0.9639 0.0870 -0.2515
vn 0.5749 0.0872 0.8135
vn -0.6065 0.0464 0.7937
vn 0.9390 0.0363 0.3419
vn -0.9019 -0.0077 -0.4319
vn 0.3117 0.0216 -0.9499
vn -0.1367 0.0342 0.9900
vn -0.9954 0.0152 0.0947
vn -0.6637 0.0021 -0.7480
vn 0.8945 0.0217 -0.4464
vn 0.8100 0.0522 0.5841
vn -0.6240 0.0083 0.7813
vn 0.0498 0.0154 -0.9986
vn -0.9864 -0.0002 -0.1644
vn 0.3727 0.0129 0.9279
vn 0.9816 0.0089 0.1909
vn -0.5539 0.0085 -0.8325
vn 0.6579 0.0094 -0.7530
vn 0.0544 0.0042 -0.9985
vn -0.4546 0.0054 0.8907
vn -0.8939 -0.0030 0.4482
vn 0.1611 0.0023 0.9869
vn 0.9906 0.0002 -0.1363
vn -0.5086 -0.0052 -0.8610
vn -0.9567 -0.0099 -0.2909
vn 0.7998 -0.0066 0.6002
s 1
f 27/1/1 28/2/2 30/3/3
f 26/4/4 30/3/3 29/5/5
f 25/6/6 29/7/5 28/2/2
f 27/1/1 30/3/3 26/4/4
f 23/8/7 28/2/2 27/1/1
f 29/7/5 25/6/6 24/9/8
f 25/6/6 28/2/2 23/8/7
f 26/4/4 22/10/9 27/1/1
f 21/11/10 26/12/4 29/7/5
f 23/8/7 27/1/1 22/10/9
f 24/9/8 21/11/10 29/7/5
f 26/4/4 21/13/10 22/10/9
f 25/6/6 17/14/11 24/9/8
f 23/8/7 17/14/11 25/6/6
f 16/15/12 23/8/7 22/10/9
f 20/16/13 22/10/9 21/13/10
f 21/11/10 24/9/8 18/17/14
f 18/17/14 24/9/8 19/18/15
f 24/9/8 17/14/11 19/18/15
f 22/10/9 20/16/13 16/15/12
f 15/19/16 17/14/11 23/8/7
f 16/15/12 15/19/16 23/8/7
f 20/16/13 21/13/10 14/20/17
f 20/16/13 12/21/18 16/15/12
f 17/14/11 11/22/19 19/18/15
f 18/17/14 19/18/15 10/23/20
f 14/20/17 13/24/21 20/16/13
f 21/11/10 18/17/14 7/25/22
f 13/24/21 12/21/18 20/16/13
f 11/22/19 10/23/20 19/18/15
f 14/20/17 21/13/10 9/26/23
f 17/14/11 15/19/16 2/27/24
f 4/28/25 15/19/16 16/15/12
f 16/15/12 12/21/18 4/28/25
f 11/22/19 17/14/11 1/29/26
f 5/30/27 18/17/14 10/23/20
f 14/20/17 8/31/28 13/24/21
f 21/13/10 7/32/22 9/26/23
f 7/25/22 18/17/14 5/30/27
f 17/14/11 2/27/24 1/29/26
f 12/21/18 13/24/21 8/31/28 6/33/29
f 3/34/30 10/23/20 11/22/19
f 9/26/23 8/31/28 14/20/17
f 4/28/25 2/27/24 15/19/16
f 4/28/25 12/21/18 6/33/29
f 1/29/26 3/34/30 11/22/19
f 10/23/20 3/34/30 5/30/27
